<svg xmlns="http://www.w3.org/2000/svg" class="rf-pixel-money-icon" viewBox="0 0 32 32" shape-rendering="crispEdges" data-set="outline" data-currency="copper" data-motion="on" style="--px-dark:#4c3c33;--px-mid:#8e6850;--px-base:#c58c65;--px-light:#dbb491;--px-white:#f1e3da;--px-ink:#26201e;--px-duration:2.4s" aria-hidden="true" focusable="false"><style>
.rf-pixel-money-icon{display:inline-block;vertical-align:middle;width:24px;height:24px;flex-shrink:0;shape-rendering:crispEdges;image-rendering:pixelated;overflow:visible}
.rf-pixel-money-icon .px-d{fill:var(--px-dark)}.rf-pixel-money-icon .px-m{fill:var(--px-mid)}.rf-pixel-money-icon .px-b{fill:var(--px-base)}.rf-pixel-money-icon .px-l{fill:var(--px-light)}.rf-pixel-money-icon .px-w{fill:var(--px-white)}.rf-pixel-money-icon .px-k{fill:var(--px-ink)}.rf-pixel-money-icon .px-s{fill:#101312}
.rf-pixel-money-icon .px-frame{opacity:0;animation:rf-pixel-frame var(--px-duration,2.4s) steps(1,end) infinite}
.rf-pixel-money-icon .px-frame[data-frame="0"]{opacity:1;animation-delay:0s}
.rf-pixel-money-icon .px-frame[data-frame="1"]{animation-delay:calc(var(--px-duration,2.4s)*-.75)}
.rf-pixel-money-icon .px-frame[data-frame="2"]{animation-delay:calc(var(--px-duration,2.4s)*-.5)}
.rf-pixel-money-icon .px-frame[data-frame="3"]{animation-delay:calc(var(--px-duration,2.4s)*-.25)}
@keyframes rf-pixel-frame{0%{opacity:1}25%,100%{opacity:0}}
.rf-pixel-money-icon[data-motion="off"] .px-frame{animation:none;opacity:0}
.rf-pixel-money-icon[data-motion="off"] .px-frame[data-frame="0"]{opacity:1}
@media(prefers-reduced-motion:reduce){.rf-pixel-money-icon .px-frame{animation:none!important;opacity:0!important}.rf-pixel-money-icon .px-frame[data-frame="0"]{opacity:1!important}}
</style><g class="px-static"><rect x="9" y="4" width="13" height="1" class="px-l"/><rect x="22" y="4" width="1" height="1" class="px-d"/><rect x="8" y="5" width="2" height="1" class="px-l"/><rect x="10" y="5" width="1" height="1" class="px-b"/><rect x="11" y="5" width="8" height="1" class="px-w"/><rect x="19" y="5" width="3" height="1" class="px-b"/><rect x="22" y="5" width="1" height="1" class="px-l"/><rect x="23" y="5" width="1" height="1" class="px-d"/><rect x="7" y="6" width="2" height="1" class="px-l"/><rect x="9" y="6" width="1" height="1" class="px-b"/><rect x="10" y="6" width="4" height="1" class="px-m"/><rect x="16" y="6" width="6" height="1" class="px-m"/><rect x="22" y="6" width="1" height="1" class="px-b"/><rect x="23" y="6" width="1" height="1" class="px-l"/><rect x="24" y="6" width="1" height="1" class="px-d"/><rect x="6" y="7" width="2" height="1" class="px-l"/><rect x="8" y="7" width="1" height="1" class="px-b"/><rect x="9" y="7" width="5" height="1" class="px-m"/><rect x="16" y="7" width="7" height="1" class="px-m"/><rect x="23" y="7" width="1" height="1" class="px-b"/><rect x="24" y="7" width="1" height="1" class="px-l"/><rect x="25" y="7" width="1" height="1" class="px-d"/><rect x="5" y="8" width="2" height="1" class="px-l"/><rect x="7" y="8" width="1" height="1" class="px-w"/><rect x="8" y="8" width="16" height="1" class="px-m"/><rect x="24" y="8" width="1" height="1" class="px-b"/><rect x="25" y="8" width="1" height="1" class="px-l"/><rect x="26" y="8" width="1" height="1" class="px-d"/><rect x="4" y="9" width="1" height="1" class="px-d"/><rect x="5" y="9" width="1" height="1" class="px-l"/><rect x="6" y="9" width="1" height="1" class="px-b"/><rect x="7" y="9" width="1" height="1" class="px-w"/><rect x="8" y="9" width="17" height="1" class="px-m"/><rect x="25" y="9" width="1" height="1" class="px-b"/><rect x="27" y="9" width="1" height="1" class="px-d"/><rect x="4" y="10" width="1" height="1" class="px-d"/><rect x="5" y="10" width="1" height="1" class="px-l"/><rect x="6" y="10" width="1" height="1" class="px-b"/><rect x="7" y="10" width="1" height="1" class="px-w"/><rect x="8" y="10" width="4" height="1" class="px-m"/><rect x="12" y="10" width="8" height="1" class="px-d"/><rect x="20" y="10" width="5" height="1" class="px-m"/><rect x="25" y="10" width="1" height="1" class="px-b"/><rect x="26" y="10" width="2" height="1" class="px-d"/><rect x="4" y="11" width="1" height="1" class="px-d"/><rect x="5" y="11" width="1" height="1" class="px-l"/><rect x="6" y="11" width="1" height="1" class="px-b"/><rect x="7" y="11" width="1" height="1" class="px-w"/><rect x="8" y="11" width="3" height="1" class="px-m"/><rect x="11" y="11" width="4" height="1" class="px-d"/><rect x="17" y="11" width="4" height="1" class="px-d"/><rect x="21" y="11" width="4" height="1" class="px-m"/><rect x="25" y="11" width="1" height="1" class="px-b"/><rect x="26" y="11" width="2" height="1" class="px-d"/><rect x="4" y="12" width="1" height="1" class="px-d"/><rect x="5" y="12" width="1" height="1" class="px-l"/><rect x="6" y="12" width="1" height="1" class="px-b"/><rect x="7" y="12" width="3" height="1" class="px-m"/><rect x="10" y="12" width="4" height="1" class="px-d"/><rect x="18" y="12" width="4" height="1" class="px-d"/><rect x="22" y="12" width="3" height="1" class="px-m"/><rect x="25" y="12" width="1" height="1" class="px-b"/><rect x="26" y="12" width="2" height="1" class="px-d"/><rect x="4" y="13" width="1" height="1" class="px-d"/><rect x="5" y="13" width="1" height="1" class="px-l"/><rect x="6" y="13" width="1" height="1" class="px-b"/><rect x="7" y="13" width="3" height="1" class="px-m"/><rect x="10" y="13" width="3" height="1" class="px-d"/><rect x="15" y="13" width="2" height="1" class="px-d"/><rect x="19" y="13" width="3" height="1" class="px-d"/><rect x="22" y="13" width="2" height="1" class="px-m"/><rect x="24" y="13" width="1" height="1" class="px-d"/><rect x="25" y="13" width="1" height="1" class="px-b"/><rect x="26" y="13" width="2" height="1" class="px-d"/><rect x="4" y="14" width="1" height="1" class="px-d"/><rect x="5" y="14" width="1" height="1" class="px-l"/><rect x="6" y="14" width="1" height="1" class="px-b"/><rect x="7" y="14" width="3" height="1" class="px-m"/><rect x="10" y="14" width="2" height="1" class="px-d"/><rect x="14" y="14" width="4" height="1" class="px-d"/><rect x="20" y="14" width="2" height="1" class="px-d"/><rect x="22" y="14" width="2" height="1" class="px-m"/><rect x="26" y="14" width="2" height="1" class="px-d"/><rect x="4" y="15" width="1" height="1" class="px-d"/><rect x="5" y="15" width="1" height="1" class="px-l"/><rect x="6" y="15" width="1" height="1" class="px-b"/><rect x="7" y="15" width="3" height="1" class="px-m"/><rect x="10" y="15" width="1" height="1" class="px-d"/><rect x="13" y="15" width="2" height="1" class="px-d"/><rect x="17" y="15" width="2" height="1" class="px-d"/><rect x="21" y="15" width="1" height="1" class="px-d"/><rect x="22" y="15" width="2" height="1" class="px-m"/><rect x="26" y="15" width="2" height="1" class="px-d"/><rect x="4" y="16" width="1" height="1" class="px-d"/><rect x="5" y="16" width="1" height="1" class="px-l"/><rect x="8" y="16" width="2" height="1" class="px-m"/><rect x="10" y="16" width="1" height="1" class="px-d"/><rect x="13" y="16" width="2" height="1" class="px-d"/><rect x="17" y="16" width="2" height="1" class="px-d"/><rect x="21" y="16" width="1" height="1" class="px-d"/><rect x="22" y="16" width="2" height="1" class="px-m"/><rect x="24" y="16" width="1" height="1" class="px-d"/><rect x="25" y="16" width="1" height="1" class="px-b"/><rect x="26" y="16" width="2" height="1" class="px-d"/><rect x="4" y="17" width="1" height="1" class="px-d"/><rect x="5" y="17" width="1" height="1" class="px-l"/><rect x="8" y="17" width="2" height="1" class="px-m"/><rect x="10" y="17" width="2" height="1" class="px-d"/><rect x="14" y="17" width="4" height="1" class="px-d"/><rect x="20" y="17" width="2" height="1" class="px-d"/><rect x="22" y="17" width="2" height="1" class="px-m"/><rect x="24" y="17" width="1" height="1" class="px-d"/><rect x="25" y="17" width="1" height="1" class="px-b"/><rect x="26" y="17" width="2" height="1" class="px-d"/><rect x="4" y="18" width="1" height="1" class="px-d"/><rect x="5" y="18" width="1" height="1" class="px-l"/><rect x="6" y="18" width="1" height="1" class="px-b"/><rect x="7" y="18" width="3" height="1" class="px-m"/><rect x="10" y="18" width="3" height="1" class="px-d"/><rect x="15" y="18" width="2" height="1" class="px-d"/><rect x="19" y="18" width="3" height="1" class="px-d"/><rect x="22" y="18" width="2" height="1" class="px-m"/><rect x="24" y="18" width="1" height="1" class="px-d"/><rect x="25" y="18" width="1" height="1" class="px-b"/><rect x="26" y="18" width="2" height="1" class="px-d"/><rect x="4" y="19" width="1" height="1" class="px-d"/><rect x="5" y="19" width="1" height="1" class="px-l"/><rect x="6" y="19" width="1" height="1" class="px-b"/><rect x="7" y="19" width="3" height="1" class="px-m"/><rect x="10" y="19" width="4" height="1" class="px-d"/><rect x="18" y="19" width="4" height="1" class="px-d"/><rect x="22" y="19" width="2" height="1" class="px-m"/><rect x="24" y="19" width="1" height="1" class="px-d"/><rect x="25" y="19" width="1" height="1" class="px-b"/><rect x="26" y="19" width="2" height="1" class="px-d"/><rect x="4" y="20" width="1" height="1" class="px-d"/><rect x="5" y="20" width="1" height="1" class="px-l"/><rect x="6" y="20" width="1" height="1" class="px-b"/><rect x="7" y="20" width="4" height="1" class="px-m"/><rect x="11" y="20" width="4" height="1" class="px-d"/><rect x="17" y="20" width="4" height="1" class="px-d"/><rect x="21" y="20" width="3" height="1" class="px-m"/><rect x="24" y="20" width="1" height="1" class="px-d"/><rect x="25" y="20" width="1" height="1" class="px-b"/><rect x="26" y="20" width="2" height="1" class="px-d"/><rect x="4" y="21" width="1" height="1" class="px-d"/><rect x="5" y="21" width="1" height="1" class="px-l"/><rect x="6" y="21" width="1" height="1" class="px-b"/><rect x="7" y="21" width="5" height="1" class="px-m"/><rect x="12" y="21" width="8" height="1" class="px-d"/><rect x="20" y="21" width="5" height="1" class="px-m"/><rect x="25" y="21" width="1" height="1" class="px-b"/><rect x="26" y="21" width="2" height="1" class="px-d"/><rect x="4" y="22" width="2" height="1" class="px-d"/><rect x="6" y="22" width="1" height="1" class="px-l"/><rect x="7" y="22" width="18" height="1" class="px-m"/><rect x="25" y="22" width="3" height="1" class="px-d"/><rect x="5" y="23" width="2" height="1" class="px-d"/><rect x="7" y="23" width="1" height="1" class="px-l"/><rect x="8" y="23" width="16" height="1" class="px-m"/><rect x="24" y="23" width="3" height="1" class="px-d"/><rect x="6" y="24" width="2" height="1" class="px-d"/><rect x="8" y="24" width="1" height="1" class="px-l"/><rect x="9" y="24" width="7" height="1" class="px-m"/><rect x="18" y="24" width="5" height="1" class="px-m"/><rect x="23" y="24" width="3" height="1" class="px-d"/><rect x="7" y="25" width="2" height="1" class="px-d"/><rect x="9" y="25" width="1" height="1" class="px-l"/><rect x="10" y="25" width="6" height="1" class="px-m"/><rect x="18" y="25" width="4" height="1" class="px-m"/><rect x="22" y="25" width="3" height="1" class="px-d"/><rect x="8" y="26" width="3" height="1" class="px-d"/><rect x="12" y="26" width="2" height="1" class="px-d"/><rect x="15" y="26" width="2" height="1" class="px-d"/><rect x="18" y="26" width="2" height="1" class="px-d"/><rect x="21" y="26" width="3" height="1" class="px-d"/><rect x="9" y="27" width="14" height="1" class="px-d"/><rect x="8" y="29" width="16" height="1" class="px-s"/><rect x="10" y="30" width="12" height="1" class="px-s"/></g><g class="px-frame" data-frame="0"><rect x="14" y="6" width="2" height="1" class="px-w"/><rect x="14" y="7" width="2" height="1" class="px-w"/><rect x="28" y="7" width="1" height="1" class="px-w"/><rect x="27" y="8" width="1" height="1" class="px-l"/><rect x="26" y="9" width="1" height="1" class="px-d"/><rect x="15" y="11" width="2" height="1" class="px-l"/><rect x="14" y="12" width="4" height="1" class="px-l"/><rect x="13" y="13" width="2" height="1" class="px-l"/><rect x="17" y="13" width="2" height="1" class="px-l"/><rect x="12" y="14" width="2" height="1" class="px-l"/><rect x="18" y="14" width="2" height="1" class="px-l"/><rect x="24" y="14" width="1" height="1" class="px-d"/><rect x="25" y="14" width="1" height="1" class="px-b"/><rect x="11" y="15" width="2" height="1" class="px-l"/><rect x="15" y="15" width="2" height="1" class="px-l"/><rect x="19" y="15" width="2" height="1" class="px-l"/><rect x="24" y="15" width="1" height="1" class="px-d"/><rect x="25" y="15" width="1" height="1" class="px-b"/><rect x="6" y="16" width="1" height="1" class="px-b"/><rect x="7" y="16" width="1" height="1" class="px-m"/><rect x="11" y="16" width="2" height="1" class="px-l"/><rect x="15" y="16" width="2" height="1" class="px-l"/><rect x="19" y="16" width="2" height="1" class="px-l"/><rect x="6" y="17" width="1" height="1" class="px-b"/><rect x="7" y="17" width="1" height="1" class="px-m"/><rect x="12" y="17" width="2" height="1" class="px-l"/><rect x="18" y="17" width="2" height="1" class="px-l"/><rect x="13" y="18" width="2" height="1" class="px-l"/><rect x="17" y="18" width="2" height="1" class="px-l"/><rect x="14" y="19" width="4" height="1" class="px-l"/><rect x="15" y="20" width="2" height="1" class="px-l"/><rect x="16" y="24" width="2" height="1" class="px-m"/><rect x="16" y="25" width="2" height="1" class="px-m"/><rect x="11" y="26" width="1" height="1" class="px-l"/><rect x="14" y="26" width="1" height="1" class="px-d"/><rect x="17" y="26" width="1" height="1" class="px-d"/><rect x="20" y="26" width="1" height="1" class="px-d"/></g><g class="px-frame" data-frame="1"><rect x="28" y="5" width="1" height="1" class="px-w"/><rect x="14" y="6" width="2" height="1" class="px-m"/><rect x="27" y="6" width="3" height="1" class="px-l"/><rect x="14" y="7" width="2" height="1" class="px-m"/><rect x="26" y="7" width="1" height="1" class="px-w"/><rect x="27" y="7" width="1" height="1" class="px-l"/><rect x="28" y="7" width="1" height="1" class="px-w"/><rect x="29" y="7" width="1" height="1" class="px-l"/><rect x="30" y="7" width="1" height="1" class="px-w"/><rect x="27" y="8" width="3" height="1" class="px-l"/><rect x="26" y="9" width="1" height="1" class="px-d"/><rect x="28" y="9" width="1" height="1" class="px-w"/><rect x="15" y="11" width="2" height="1" class="px-w"/><rect x="14" y="12" width="4" height="1" class="px-w"/><rect x="13" y="13" width="2" height="1" class="px-w"/><rect x="17" y="13" width="2" height="1" class="px-w"/><rect x="12" y="14" width="2" height="1" class="px-w"/><rect x="18" y="14" width="2" height="1" class="px-w"/><rect x="24" y="14" width="2" height="1" class="px-w"/><rect x="11" y="15" width="2" height="1" class="px-w"/><rect x="15" y="15" width="2" height="1" class="px-w"/><rect x="19" y="15" width="2" height="1" class="px-w"/><rect x="24" y="15" width="2" height="1" class="px-w"/><rect x="6" y="16" width="1" height="1" class="px-b"/><rect x="7" y="16" width="1" height="1" class="px-m"/><rect x="11" y="16" width="2" height="1" class="px-w"/><rect x="15" y="16" width="2" height="1" class="px-w"/><rect x="19" y="16" width="2" height="1" class="px-w"/><rect x="6" y="17" width="1" height="1" class="px-b"/><rect x="7" y="17" width="1" height="1" class="px-m"/><rect x="12" y="17" width="2" height="1" class="px-w"/><rect x="18" y="17" width="2" height="1" class="px-w"/><rect x="13" y="18" width="2" height="1" class="px-w"/><rect x="17" y="18" width="2" height="1" class="px-w"/><rect x="14" y="19" width="4" height="1" class="px-w"/><rect x="15" y="20" width="2" height="1" class="px-w"/><rect x="16" y="24" width="2" height="1" class="px-m"/><rect x="16" y="25" width="2" height="1" class="px-m"/><rect x="11" y="26" width="1" height="1" class="px-d"/><rect x="14" y="26" width="1" height="1" class="px-l"/><rect x="17" y="26" width="1" height="1" class="px-d"/><rect x="20" y="26" width="1" height="1" class="px-d"/></g><g class="px-frame" data-frame="2"><rect x="26" y="5" width="1" height="1" class="px-l"/><rect x="30" y="5" width="1" height="1" class="px-w"/><rect x="14" y="6" width="2" height="1" class="px-m"/><rect x="14" y="7" width="2" height="1" class="px-m"/><rect x="26" y="9" width="1" height="1" class="px-w"/><rect x="30" y="9" width="1" height="1" class="px-l"/><rect x="15" y="11" width="2" height="1" class="px-l"/><rect x="14" y="12" width="4" height="1" class="px-l"/><rect x="13" y="13" width="2" height="1" class="px-l"/><rect x="17" y="13" width="2" height="1" class="px-l"/><rect x="12" y="14" width="2" height="1" class="px-l"/><rect x="18" y="14" width="2" height="1" class="px-l"/><rect x="24" y="14" width="1" height="1" class="px-d"/><rect x="25" y="14" width="1" height="1" class="px-b"/><rect x="11" y="15" width="2" height="1" class="px-l"/><rect x="15" y="15" width="2" height="1" class="px-l"/><rect x="19" y="15" width="2" height="1" class="px-l"/><rect x="24" y="15" width="1" height="1" class="px-d"/><rect x="25" y="15" width="1" height="1" class="px-b"/><rect x="6" y="16" width="1" height="1" class="px-b"/><rect x="7" y="16" width="1" height="1" class="px-m"/><rect x="11" y="16" width="2" height="1" class="px-l"/><rect x="15" y="16" width="2" height="1" class="px-l"/><rect x="19" y="16" width="2" height="1" class="px-l"/><rect x="6" y="17" width="1" height="1" class="px-b"/><rect x="7" y="17" width="1" height="1" class="px-m"/><rect x="12" y="17" width="2" height="1" class="px-l"/><rect x="18" y="17" width="2" height="1" class="px-l"/><rect x="13" y="18" width="2" height="1" class="px-l"/><rect x="17" y="18" width="2" height="1" class="px-l"/><rect x="14" y="19" width="4" height="1" class="px-l"/><rect x="15" y="20" width="2" height="1" class="px-l"/><rect x="16" y="24" width="2" height="1" class="px-w"/><rect x="16" y="25" width="2" height="1" class="px-w"/><rect x="11" y="26" width="1" height="1" class="px-d"/><rect x="14" y="26" width="1" height="1" class="px-d"/><rect x="17" y="26" width="1" height="1" class="px-l"/><rect x="20" y="26" width="1" height="1" class="px-d"/></g><g class="px-frame" data-frame="3"><rect x="14" y="6" width="2" height="1" class="px-m"/><rect x="14" y="7" width="2" height="1" class="px-m"/><rect x="28" y="7" width="1" height="1" class="px-l"/><rect x="26" y="9" width="1" height="1" class="px-d"/><rect x="15" y="11" width="2" height="1" class="px-b"/><rect x="14" y="12" width="4" height="1" class="px-b"/><rect x="13" y="13" width="2" height="1" class="px-b"/><rect x="17" y="13" width="2" height="1" class="px-b"/><rect x="12" y="14" width="2" height="1" class="px-b"/><rect x="18" y="14" width="2" height="1" class="px-b"/><rect x="24" y="14" width="1" height="1" class="px-d"/><rect x="25" y="14" width="1" height="1" class="px-b"/><rect x="11" y="15" width="2" height="1" class="px-b"/><rect x="15" y="15" width="2" height="1" class="px-b"/><rect x="19" y="15" width="2" height="1" class="px-b"/><rect x="24" y="15" width="1" height="1" class="px-d"/><rect x="25" y="15" width="1" height="1" class="px-b"/><rect x="6" y="16" width="2" height="1" class="px-w"/><rect x="11" y="16" width="2" height="1" class="px-b"/><rect x="15" y="16" width="2" height="1" class="px-b"/><rect x="19" y="16" width="2" height="1" class="px-b"/><rect x="6" y="17" width="2" height="1" class="px-w"/><rect x="12" y="17" width="2" height="1" class="px-b"/><rect x="18" y="17" width="2" height="1" class="px-b"/><rect x="13" y="18" width="2" height="1" class="px-b"/><rect x="17" y="18" width="2" height="1" class="px-b"/><rect x="14" y="19" width="4" height="1" class="px-b"/><rect x="15" y="20" width="2" height="1" class="px-b"/><rect x="16" y="24" width="2" height="1" class="px-m"/><rect x="16" y="25" width="2" height="1" class="px-m"/><rect x="11" y="26" width="1" height="1" class="px-d"/><rect x="14" y="26" width="1" height="1" class="px-d"/><rect x="17" y="26" width="1" height="1" class="px-d"/><rect x="20" y="26" width="1" height="1" class="px-l"/></g></svg>